<?xml version="1.0" encoding="utf-8"?>
<!-- Generator: Adobe Illustrator 23.0.1, SVG Export Plug-In . SVG Version: 6.00 Build 0)  -->
<svg version="1.1" id="Layer_1" xmlns="http://www.w3.org/2000/svg" xmlns:xlink="http://www.w3.org/1999/xlink" x="0px" y="0px"
	 viewBox="0 0 1000 1000" style="enable-background:new 0 0 1000 1000;" xml:space="preserve">
<style type="text/css">
	.st0{fill:#333333;}
</style>
<g>
	<path class="st0" d="M57.95,459.98c1.7,3.05,2.56,6.59,2.56,10.62c0,4.03-0.85,7.58-2.56,10.66s-4.01,5.44-6.91,7.09
		c-2.9,1.66-6.13,2.48-9.69,2.48c-5.14,0-8.98-1.51-11.52-4.54v3.89H16.8v-53.43h13.68v17.79c2.64-2.69,6.26-4.03,10.87-4.03
		c3.55,0,6.78,0.82,9.69,2.45C53.94,454.59,56.25,456.93,57.95,459.98z M46.68,470.6c0-2.88-0.77-5.14-2.3-6.77
		c-1.54-1.63-3.5-2.45-5.9-2.45c-2.4,0-4.37,0.82-5.9,2.45c-1.54,1.63-2.3,3.89-2.3,6.77c0,2.93,0.77,5.22,2.3,6.88
		s3.5,2.48,5.9,2.48c2.4,0,4.37-0.83,5.9-2.48S46.68,473.52,46.68,470.6z"/>
	<path class="st0" d="M107.38,450.51v12.31c-1.25-0.14-2.28-0.22-3.1-0.22c-2.93,0-5.22,0.79-6.88,2.38
		c-1.66,1.58-2.48,4.01-2.48,7.27v17.93H81.24v-39.03h13.03v4.68c1.39-1.78,3.2-3.11,5.44-4
		C101.94,450.95,104.5,450.51,107.38,450.51z"/>
	<path class="st0" d="M163.68,468.51v21.67h-12.75v-5.04c-1.97,3.79-5.81,5.69-11.52,5.69c-3.02,0-5.64-0.53-7.85-1.58
		c-2.21-1.06-3.88-2.48-5-4.28c-1.13-1.8-1.69-3.85-1.69-6.16c0-3.7,1.42-6.56,4.25-8.6c2.83-2.04,7.2-3.06,13.1-3.06H150
		c-0.24-4.13-3-6.19-8.28-6.19c-1.87,0-3.77,0.3-5.69,0.9c-1.92,0.6-3.55,1.43-4.9,2.48l-4.61-9.29c2.16-1.44,4.79-2.56,7.88-3.35
		s6.2-1.19,9.32-1.19c6.48,0,11.42,1.48,14.83,4.43C161.98,457.89,163.68,462.41,163.68,468.51z M150,477.65v-3.38h-5.9
		c-3.98,0-5.98,1.32-5.98,3.96c0,1.2,0.46,2.16,1.37,2.88s2.16,1.08,3.74,1.08c1.58,0,2.98-0.38,4.18-1.15S149.47,479.14,150,477.65
		z"/>
	<path class="st0" d="M228.27,467.86v22.32h-13.68v-20.09c0-5.33-2.14-7.99-6.41-7.99c-2.35,0-4.24,0.77-5.65,2.3
		s-2.12,3.84-2.12,6.91v18.87h-13.68v-39.03h13.03v4.25c1.54-1.58,3.36-2.8,5.47-3.64c2.11-0.84,4.42-1.26,6.91-1.26
		c4.85,0,8.75,1.44,11.7,4.32S228.27,462.05,228.27,467.86z"/>
	<path class="st0" d="M293.28,490.18h-13.03v-3.89c-2.54,3.02-6.36,4.54-11.45,4.54c-3.55,0-6.79-0.83-9.72-2.48
		c-2.93-1.66-5.24-4.02-6.95-7.09s-2.56-6.62-2.56-10.66c0-4.03,0.85-7.57,2.56-10.62s4.02-5.39,6.95-7.02
		c2.93-1.63,6.17-2.45,9.72-2.45c4.66,0,8.26,1.34,10.8,4.03v-17.79h13.68V490.18z M279.82,470.6c0-2.88-0.76-5.14-2.27-6.77
		c-1.51-1.63-3.47-2.45-5.87-2.45s-4.37,0.82-5.9,2.45c-1.54,1.63-2.3,3.89-2.3,6.77c0,2.93,0.77,5.22,2.3,6.88s3.5,2.48,5.9,2.48
		c2.35,0,4.3-0.83,5.83-2.48S279.82,473.52,279.82,470.6z"/>
	<path class="st0" d="M327.77,474.12c0.58,2.02,1.69,3.56,3.35,4.64c1.66,1.08,3.73,1.62,6.23,1.62c1.87,0,3.49-0.26,4.86-0.79
		c1.37-0.53,2.75-1.39,4.14-2.59l7.2,7.49c-3.79,4.22-9.34,6.34-16.63,6.34c-4.56,0-8.57-0.86-12.03-2.59
		c-3.46-1.73-6.13-4.13-8.03-7.2c-1.9-3.07-2.84-6.55-2.84-10.44c0-3.84,0.92-7.28,2.77-10.33s4.4-5.44,7.67-7.16
		c3.26-1.73,6.94-2.59,11.02-2.59c3.89,0,7.42,0.8,10.58,2.41c3.17,1.61,5.68,3.94,7.52,6.98c1.85,3.05,2.77,6.66,2.77,10.84
		c0,0.1-0.07,1.22-0.22,3.38H327.77z M327.55,466.92h15.99c-0.38-2.06-1.28-3.7-2.7-4.9s-3.18-1.8-5.29-1.8s-3.88,0.6-5.29,1.8
		S327.94,464.86,327.55,466.92z"/>
	<path class="st0" d="M418.56,490.18h-13.03v-3.89c-2.54,3.02-6.36,4.54-11.45,4.54c-3.55,0-6.79-0.83-9.72-2.48
		c-2.93-1.66-5.24-4.02-6.95-7.09s-2.56-6.62-2.56-10.66c0-4.03,0.85-7.57,2.56-10.62s4.02-5.39,6.95-7.02
		c2.93-1.63,6.17-2.45,9.72-2.45c4.66,0,8.26,1.34,10.8,4.03v-17.79h13.68V490.18z M405.1,470.6c0-2.88-0.76-5.14-2.27-6.77
		c-1.51-1.63-3.47-2.45-5.87-2.45c-2.4,0-4.37,0.82-5.9,2.45c-1.54,1.63-2.3,3.89-2.3,6.77c0,2.93,0.77,5.22,2.3,6.88
		s3.5,2.48,5.9,2.48c2.35,0,4.3-0.83,5.83-2.48S405.1,473.52,405.1,470.6z"/>
	<path class="st0" d="M543.7,467.86v22.32h-13.68v-20.09c0-2.74-0.52-4.75-1.55-6.05c-1.03-1.3-2.48-1.94-4.36-1.94
		c-2.06,0-3.72,0.72-4.97,2.16c-1.25,1.44-1.87,3.62-1.87,6.55v19.37h-13.68v-20.09c0-5.33-1.97-7.99-5.9-7.99
		c-2.11,0-3.79,0.72-5.04,2.16c-1.25,1.44-1.87,3.62-1.87,6.55v19.37h-13.68v-39.03h13.03v4.1c1.44-1.58,3.16-2.77,5.15-3.56
		s4.16-1.19,6.52-1.19c2.74,0,5.18,0.5,7.34,1.51c2.16,1.01,3.91,2.54,5.26,4.61c1.54-1.97,3.48-3.48,5.83-4.54
		c2.35-1.06,4.92-1.58,7.7-1.58c4.8,0,8.63,1.44,11.49,4.32S543.7,462.05,543.7,467.86z"/>
	<path class="st0" d="M567.71,481.04c-1.9-3.07-2.84-6.55-2.84-10.44c0-3.84,0.95-7.3,2.84-10.37c1.9-3.07,4.51-5.46,7.85-7.16
		c3.34-1.7,7.12-2.56,11.34-2.56c4.22,0,8.02,0.85,11.38,2.56s5.98,4.08,7.85,7.13s2.81,6.52,2.81,10.41
		c0,3.89-0.94,7.37-2.81,10.44s-4.49,5.47-7.85,7.2c-3.36,1.73-7.15,2.59-11.38,2.59c-4.18,0-7.95-0.86-11.31-2.59
		C572.23,486.51,569.6,484.11,567.71,481.04z M595.1,470.6c0-2.88-0.77-5.14-2.3-6.77c-1.54-1.63-3.5-2.45-5.9-2.45
		c-2.4,0-4.37,0.82-5.91,2.45c-1.54,1.63-2.3,3.89-2.3,6.77c0,2.93,0.77,5.22,2.3,6.88s3.5,2.48,5.91,2.48c2.4,0,4.37-0.83,5.9-2.48
		S595.1,473.52,595.1,470.6z"/>
	<path class="st0" d="M653.57,490.18h-14.11l-16.06-39.03h14.04l9.36,23.83l9.86-23.83h13.03L653.57,490.18z"/>
	<path class="st0" d="M697.85,474.12c0.58,2.02,1.69,3.56,3.35,4.64s3.73,1.62,6.23,1.62c1.87,0,3.49-0.26,4.86-0.79
		c1.37-0.53,2.75-1.39,4.14-2.59l7.2,7.49c-3.79,4.22-9.34,6.34-16.63,6.34c-4.56,0-8.57-0.86-12.02-2.59
		c-3.46-1.73-6.13-4.13-8.03-7.2c-1.9-3.07-2.84-6.55-2.84-10.44c0-3.84,0.92-7.28,2.77-10.33c1.85-3.05,4.4-5.44,7.67-7.16
		c3.26-1.73,6.94-2.59,11.02-2.59c3.89,0,7.42,0.8,10.58,2.41c3.17,1.61,5.68,3.94,7.52,6.98c1.85,3.05,2.77,6.66,2.77,10.84
		c0,0.1-0.07,1.22-0.22,3.38H697.85z M697.63,466.92h15.99c-0.38-2.06-1.28-3.7-2.7-4.9s-3.18-1.8-5.29-1.8
		c-2.11,0-3.88,0.6-5.29,1.8S698.01,464.86,697.63,466.92z"/>
	<path class="st0" d="M813.77,467.86v22.32h-13.68v-20.09c0-2.74-0.52-4.75-1.55-6.05c-1.03-1.3-2.48-1.94-4.36-1.94
		c-2.06,0-3.72,0.72-4.97,2.16c-1.25,1.44-1.87,3.62-1.87,6.55v19.37h-13.68v-20.09c0-5.33-1.97-7.99-5.9-7.99
		c-2.11,0-3.79,0.72-5.04,2.16c-1.25,1.44-1.87,3.62-1.87,6.55v19.37h-13.68v-39.03h13.03v4.1c1.44-1.58,3.16-2.77,5.15-3.56
		s4.16-1.19,6.52-1.19c2.74,0,5.18,0.5,7.34,1.51c2.16,1.01,3.91,2.54,5.26,4.61c1.54-1.97,3.48-3.48,5.83-4.54
		c2.35-1.06,4.92-1.58,7.7-1.58c4.8,0,8.63,1.44,11.49,4.32S813.77,462.05,813.77,467.86z"/>
	<path class="st0" d="M848.68,474.12c0.58,2.02,1.69,3.56,3.35,4.64s3.73,1.62,6.23,1.62c1.87,0,3.49-0.26,4.86-0.79
		c1.37-0.53,2.75-1.39,4.14-2.59l7.2,7.49c-3.79,4.22-9.34,6.34-16.63,6.34c-4.56,0-8.57-0.86-12.02-2.59
		c-3.46-1.73-6.13-4.13-8.03-7.2c-1.9-3.07-2.84-6.55-2.84-10.44c0-3.84,0.92-7.28,2.77-10.33c1.85-3.05,4.4-5.44,7.67-7.16
		c3.26-1.73,6.94-2.59,11.02-2.59c3.89,0,7.42,0.8,10.58,2.41c3.17,1.61,5.68,3.94,7.52,6.98c1.85,3.05,2.77,6.66,2.77,10.84
		c0,0.1-0.07,1.22-0.22,3.38H848.68z M848.47,466.92h15.99c-0.38-2.06-1.28-3.7-2.7-4.9s-3.18-1.8-5.29-1.8
		c-2.11,0-3.88,0.6-5.29,1.8S848.85,464.86,848.47,466.92z"/>
	<path class="st0" d="M939.55,467.86v22.32h-13.68v-20.09c0-5.33-2.14-7.99-6.41-7.99c-2.35,0-4.24,0.77-5.65,2.3
		c-1.42,1.54-2.13,3.84-2.13,6.91v18.87H898v-39.03h13.03v4.25c1.54-1.58,3.36-2.8,5.47-3.64c2.11-0.84,4.42-1.26,6.91-1.26
		c4.85,0,8.75,1.44,11.7,4.32S939.55,462.05,939.55,467.86z"/>
	<path class="st0" d="M985.23,490.25c-1.66,0.38-3.42,0.58-5.29,0.58c-5.09,0-9-1.25-11.74-3.74s-4.1-6.22-4.1-11.16v-13.1h-5.69
		v-10.23h5.69v-10.15h13.68v10.15h8.93v10.23h-8.93v12.96c0,1.39,0.37,2.48,1.12,3.28s1.74,1.19,2.99,1.19
		c1.58,0,2.98-0.41,4.18-1.22l3.38,9.58C988.29,489.32,986.89,489.87,985.23,490.25z"/>
</g>
<g>
</g>
<g>
</g>
<g>
</g>
<g>
</g>
<g>
</g>
</svg>
