<?xml version="1.0" encoding="utf-8"?>
<!-- Generator: Adobe Illustrator 23.0.1, SVG Export Plug-In . SVG Version: 6.00 Build 0)  -->
<svg version="1.1" id="Layer_1" xmlns="http://www.w3.org/2000/svg" xmlns:xlink="http://www.w3.org/1999/xlink" x="0px" y="0px"
	 viewBox="0 0 800 600" style="enable-background:new 0 0 800 600;" xml:space="preserve">
<style type="text/css">
	.st0{fill:#333333;stroke:#000000;stroke-miterlimit:10;}
	.st1{fill:#FFFFFF;stroke:#000000;stroke-miterlimit:10;}
	.st2{fill:#E74C3C;stroke:#000000;stroke-miterlimit:10;}
	.st3{fill:#E74C3C;stroke:#000000;stroke-width:0.5;stroke-miterlimit:10;}
	.st4{fill:none;}
</style>
<rect x="74.37" y="177.08" class="st0" width="225.66" height="147.37"/>
<path class="st0" d="M480.13,324.45H349.53c-6.6,0-12-5.4-12-12v-69.42c0-6.6,5.4-12,12-12h130.61c6.6,0,12,5.4,12,12v69.42
	C492.13,319.05,486.73,324.45,480.13,324.45z"/>
<path class="st0" d="M568.12,324.45h-19.74c-7.06,0-12.83-5.77-12.83-12.83v-67.76c0-7.06,5.77-12.83,12.83-12.83h19.74
	c7.06,0,12.83,5.77,12.83,12.83v67.76C580.95,318.67,575.17,324.45,568.12,324.45z"/>
<path class="st1" d="M363.34,311.29h102.97c6.6,0,12-5.4,12-12v-43.11c0-6.6-5.4-12-12-12H363.34c-6.6,0-12,5.4-12,12v43.11
	C351.34,305.89,356.74,311.29,363.34,311.29z"/>
<path class="st1" d="M546.08,240.89h24.34c2.53,0,4.61,2.07,4.61,4.61v64.47c0,2.53-2.07,4.61-4.61,4.61h-24.34
	c-2.53,0-4.61-2.07-4.61-4.61V245.5C541.47,242.97,543.55,240.89,546.08,240.89z"/>
<path class="st1" d="M93.78,188.92h186.84c3.44,0,6.25,2.81,6.25,6.25v111.18c0,3.44-2.81,6.25-6.25,6.25H93.78
	c-3.44,0-6.25-2.81-6.25-6.25V195.17C87.53,191.73,90.34,188.92,93.78,188.92z"/>
<path class="st2" d="M170.79,259.97l-17.11-10.2l17.11-8.88v-9.87l-28.29,13.16v13.16c0,0,0,0,28.29,11.18V259.97z"/>
<polygon class="st2" points="170.79,273.13 191.18,222.47 198.75,226.42 179.34,277.08 "/>
<path class="st2" d="M199.92,232.02c27.93,12.06,27.93,12.06,27.93,12.06l-0.41,13.15l-28.69,12.27l0.31-9.86l17.37-8.34
	l-16.78-10.73L199.92,232.02z"/>
<path class="st2" d="M407.44,285.07l-12.3-7.34l12.3-6.39v-7.1l-20.35,9.46v9.46c0,0,0,0,20.35,8.04V285.07z"/>
<polygon class="st2" points="407.44,294.54 422.11,258.1 427.55,260.94 413.59,297.38 "/>
<path class="st2" d="M428.4,264.97c20.09,8.68,20.09,8.68,20.09,8.68l-0.3,9.46l-20.64,8.82l0.22-7.1l12.5-6l-12.07-7.72
	L428.4,264.97z"/>
<path class="st3" d="M553.96,281.49l-5.1-3.04l5.1-2.65v-2.94l-8.44,3.93v3.93c0,0,0,0,8.44,3.34V281.49z"/>
<polygon class="st3" points="553.96,285.41 560.04,270.3 562.3,271.48 556.51,286.59 "/>
<path class="st3" d="M562.65,273.15c8.33,3.6,8.33,3.6,8.33,3.6l-0.12,3.92l-8.56,3.66l0.09-2.94l5.18-2.49l-5.01-3.2L562.65,273.15
	z"/>
<rect class="st4" width="800" height="600"/>
</svg>
