<?xml version="1.0" encoding="utf-8"?>
<!-- Generator: Adobe Illustrator 23.0.1, SVG Export Plug-In . SVG Version: 6.00 Build 0)  -->
<svg version="1.1" id="Layer_1" xmlns="http://www.w3.org/2000/svg" xmlns:xlink="http://www.w3.org/1999/xlink" x="0px" y="0px"
	 viewBox="0 0 800 600" style="enable-background:new 0 0 800 600;" xml:space="preserve">
<style type="text/css">
	.st0{fill:#FFFFFF;stroke:#000000;stroke-miterlimit:10;}
	.st1{fill:#E74C3C;stroke:#000000;stroke-miterlimit:10;}
	.st2{font-family:'MyriadPro-Regular';}
	.st3{font-size:12px;}
</style>
<path class="st0" d="M386.13,23.79"/>
<line class="st0" x1="400" y1="31.25" x2="400" y2="568.75"/>
<line class="st0" x1="714.6" y1="282.82" x2="85.4" y2="280.81"/>
<circle class="st1" cx="120.18" cy="486.78" r="11.68"/>
<circle class="st1" cx="259.98" cy="420.66" r="12.01"/>
<circle class="st1" cx="210.8" cy="155.7" r="25.99"/>
<circle class="st1" cx="637.61" cy="352.9" r="13.98"/>
<circle class="st1" cx="521" cy="493.53" r="27.63"/>
<circle class="st1" cx="557.51" cy="168.2" r="20.07"/>
<circle class="st1" cx="497.64" cy="242.54" r="8.22"/>
<circle class="st1" cx="657.68" cy="215.73" r="12.99"/>
<circle class="st1" cx="346" cy="192.21" r="10.53"/>
<text transform="matrix(1 0 0 1 96.0002 512.6052)" class="st2 st3">Company 1</text>
<text transform="matrix(1 0 0 1 232.8422 449.4478)" class="st2 st3">Company 2</text>
<text transform="matrix(1 0 0 1 184.8158 198.1316)" class="st2 st3">Company 3</text>
<text transform="matrix(1 0 0 1 317.0525 215.7303)" class="st2 st3">Company 4</text>
<text transform="matrix(1 0 0 1 471.0002 265.2368)" class="st2 st3">Company 5</text>
<text transform="matrix(1 0 0 1 528.8947 202.7368)" class="st2 st3">Company 6</text>
<text transform="matrix(1 0 0 1 629.553 242.5395)" class="st2 st3">Company 7</text>
<text transform="matrix(1 0 0 1 610.4732 377.0791)" class="st2 st3">Company 8</text>
<text transform="matrix(1 0 0 1 491.3945 532.3418)" class="st2 st3">Company 9</text>
<text transform="matrix(1 0 0 1 86.7896 294.184)" class="st2 st3">VALUE X</text>
<text transform="matrix(1 0 0 1 379.7368 26.5786)" class="st2 st3">VALUE Y</text>
</svg>
